<?xml version="1.0" encoding="utf-8"?>
<!-- Generator: Adobe Illustrator 22.1.0, SVG Export Plug-In . SVG Version: 6.00 Build 0)  -->
<svg version="1.1" id="Layer_1" xmlns="http://www.w3.org/2000/svg" xmlns:xlink="http://www.w3.org/1999/xlink" x="0px" y="0px"
	 viewBox="0 0 708.7 161" style="enable-background:new 0 0 708.7 161;" xml:space="preserve">
<path d="M629.1,101.4c0,0,0-19.7,0-27.6c0-17.2-8.5-22-33-22c-0.2,0-48.2,0-48.2,0v49.6h30.4V67.8c0,0,6,0,8.1,0
	c9,0,12.2,5.3,12.2,11c0,3,0,22.6,0,22.6H629.1L629.1,101.4z M542.1,68.2c0-0.6,0-1.3,0-2c0-8.2-4.7-14.4-25.9-14.4
	c-5.7,0-24.6,0-31.2,0c-19.7,0-27.9,6.7-27.9,21.4c0,2.8,0,6.1,0,8.7c0,12.4,8.2,19.5,25.6,19.5h55.6V86.9h-44.9c-4.4,0-6-1.4-6-4.7
	v-0.5c3.5,0,26.5,0,34.9,0C534.7,81.7,542.1,77.5,542.1,68.2L542.1,68.2z M513.3,69.4c0,2.2-0.9,3.5-4.4,3.5h-21.4V71
	c0-2.8,1.1-4.7,4.6-4.7c3.4,0,16.6,0,16.6,0C511.4,66.2,513.3,67.2,513.3,69.4L513.3,69.4z M434.9,66.7h19v-15c0,0-23.8,0-39,0
	c-6.3,0-10.2,3.4-10.2,8.8c0,2.6,0,40.8,0,40.8H435L434.9,66.7L434.9,66.7z M398.1,82.1c0-2.8,0-8.2,0-10.8
	c0-12.4-8.1-19.5-25.6-19.5h-54.4v14.4h43.7c4.4,0,6,1.4,6,4.8v0.5c-3.5,0-26.5,0-34.9,0c-14.7,0-19.6,6.3-19.6,14.3
	c0,0.6,0,0.9,0,1.6c0,3.6,1.1,6.7,3.2,8.7c4.2,4.1,12.5,5.3,23.6,5.3c5.7,0,23.6,0,30.2,0C389.9,101.3,398.1,96.7,398.1,82.1
	L398.1,82.1z M367.7,82.1c0,2.8-1.1,4.7-4.6,4.7c-3.4,0-16.4,0-16.4,0c-2.8,0-4.5-0.8-4.5-3s1-3.6,4.5-3.6h21V82.1L367.7,82.1z
	 M308.8,101.4v-15h-23.4V43.9H255v57.6L308.8,101.4 M199.2,101.4c7.5,0,49,0,49,0v-15c0,0-36.6,0-40.1,0c-3.9,0-7.9-2.2-7.9-9.5v-1
	c0-6.5,3.3-9.1,7.6-9.1c1.9,0,30.1,0,40.4,0v-15c-14.4,0-49.9,0-50,0c-20.3,0-28.6,8.9-28.6,22.5v4.6
	C169.6,94.9,178.5,101.4,199.2,101.4L199.2,101.4z M133,101.4h30.4V43.8c0,0-8.7,0-17.8,0c-7.3,0-12.5,3.1-17.5,7.4
	c-5.6,4.9-25.7,22.3-25.7,22.3V43.8c0,0-8.2,0-17.9,0c-10.1,0-15.2,3.5-20.9,7.9C59.7,54.8,0,101.4,0,101.4h36.2L72,72v29.4h29
	l32-29.2L133,101.4L133,101.4z"/>
<path d="M685.5,0c-15.6,0-37.6,4.7-61.5,13.4c-19.9,7.3-39.6,16.5-60.9,30c12.5-5.1,37-10.8,57.3-10.8c27.4,0,46.9,10.5,18.1,47.2
	C723.4,24.2,721,0,685.5,0"/>
<g>
	<path d="M430.1,130.9h3.1l11.4,30h-3.4l-2.9-7.8h-13.4l-2.9,7.8h-3.3L430.1,130.9z M437.2,150.2l-5.6-15.1l-5.7,15.1H437.2z"/>
	<path d="M458,131.2h9c6.3,0,10.5,3.6,10.5,9.4v0.1c0,6.3-4.8,9.7-10.8,9.7h-5.4v10.5h-3.2L458,131.2L458,131.2z M466.7,147.5
		c4.6,0,7.6-2.7,7.6-6.8v-0.1c0-4.3-2.9-6.6-7.5-6.6h-5.5v13.4L466.7,147.5L466.7,147.5z"/>
	<path d="M491.1,131.2h9c6.3,0,10.5,3.6,10.5,9.4v0.1c0,6.3-4.8,9.7-10.8,9.7h-5.4v10.5h-3.3V131.2z M499.8,147.5
		c4.6,0,7.6-2.7,7.6-6.8v-0.1c0-4.3-2.9-6.6-7.5-6.6h-5.5v13.4L499.8,147.5L499.8,147.5z"/>
	<path d="M524.1,131.2h3.2V158h13.8v2.9h-17V131.2z"/>
	<path d="M555,131.2h3.2V161H555V131.2z"/>
	<path d="M574.1,131.2h18.2v2.9h-15v10.4h13.4v2.9h-13.4V158h15.2v2.9h-18.4V131.2z"/>
	<path d="M606.7,131.2h8.4c8.3,0,14,6,14,14.7v0.3c0,8.7-5.7,14.8-14,14.8h-8.4V131.2z M609.9,134.1V158h5.1
		c6.5,0,10.8-4.7,10.8-11.8v-0.3c0-7.1-4.3-11.8-10.8-11.8L609.9,134.1L609.9,134.1z"/>
</g>
</svg>
